<?xml version="1.0" standalone="no"?>
<!DOCTYPE svg PUBLIC "-//W3C//DTD SVG 20010904//EN"
 "http://www.w3.org/TR/2001/REC-SVG-20010904/DTD/svg10.dtd">
<svg version="1.0" xmlns="http://www.w3.org/2000/svg"
 width="952.000000pt" height="960.000000pt" viewBox="0 0 952.000000 960.000000"
 preserveAspectRatio="xMidYMid meet">
<metadata>
Created by potrace 1.16, written by Peter Selinger 2001-2019
</metadata>
<g transform="translate(0.000000,960.000000) scale(0.100000,-0.100000)"
fill="#000000" stroke="none">
<path d="M3222 9558 c2 -111 2 -593 -1 -663 -3 -75 10 -892 13 -902 4 -10 39
-13 133 -13 151 0 385 -24 463 -48 30 -9 63 -16 73 -14 10 1 36 -7 57 -18 22
-11 46 -20 55 -20 9 0 26 -6 38 -14 12 -8 45 -22 72 -31 28 -10 64 -27 80 -39
17 -12 44 -28 62 -35 18 -7 54 -34 80 -60 89 -87 109 -92 248 -62 119 27 643
43 697 22 33 -13 91 -27 188 -46 101 -20 147 -36 200 -70 22 -14 51 -25 64
-25 14 0 33 -8 43 -18 10 -10 38 -30 63 -44 50 -29 159 -132 204 -192 l29 -38
141 5 c77 3 191 8 251 10 61 3 153 5 206 5 53 0 100 5 103 10 6 10 -19 54
-101 182 -54 81 -90 126 -175 211 -38 36 -68 71 -68 77 0 5 -21 26 -47 46 -27
20 -77 65 -113 99 -36 34 -102 83 -145 110 -104 61 -109 65 -175 112 -53 38
-77 53 -200 117 -30 16 -61 35 -70 42 -8 7 -32 16 -52 20 -42 8 -78 46 -78 83
0 13 10 49 21 81 22 58 38 142 44 222 2 25 8 70 14 100 21 105 13 446 -14 540
-6 25 -10 50 -8 57 2 6 -1 14 -6 18 -6 3 -11 16 -11 29 0 25 -34 101 -50 111
-5 3 -10 16 -10 28 0 12 -7 30 -14 40 -12 16 -51 17 -550 17 -356 0 -535 -3
-531 -10 3 -5 25 -10 48 -10 23 -1 53 -7 67 -15 14 -8 35 -14 47 -15 18 0 70
-23 133 -59 8 -5 42 -19 75 -32 33 -13 79 -38 102 -55 50 -38 140 -138 157
-174 6 -13 22 -36 36 -52 23 -25 40 -75 70 -207 13 -58 6 -250 -10 -280 -30
-53 -70 -145 -70 -159 0 -8 -39 -52 -87 -97 -72 -68 -110 -94 -208 -143 -89
-45 -138 -64 -190 -72 -38 -6 -74 -15 -81 -21 -7 -6 -139 -9 -332 -9 l-320 1
-17 26 c-10 14 -19 45 -21 67 -5 62 -14 515 -14 741 0 110 -5 215 -11 232 -6
18 -7 38 -3 44 4 7 6 69 5 140 -2 122 -2 128 21 143 21 15 -1 16 -299 16
l-322 0 1 -42z"/>
<path d="M1686 7801 c-4 -5 -7 -225 -8 -488 -1 -584 0 -2097 2 -2138 1 -16 2
-39 2 -50 -2 -75 0 -916 3 -1120 1 -137 0 -321 -3 -408 -5 -146 -7 -159 -25
-169 -14 -7 -163 -12 -426 -15 -291 -4 -410 -9 -418 -17 -20 -18 -21 -435 -2
-448 9 -5 288 -6 709 -2 752 7 770 8 754 56 -4 13 -5 43 -3 68 4 40 2 641 -1
665 -1 6 3 33 8 61 13 63 14 84 7 444 -5 237 -5 550 -2 740 0 33 -1 174 -4
275 -1 44 -2 107 -1 140 1 132 2 657 2 1120 -1 451 4 687 15 741 3 12 12 24
20 28 8 3 261 6 562 7 302 0 571 5 598 9 91 15 202 -4 296 -48 46 -22 95 -44
108 -47 12 -4 39 -18 58 -31 20 -13 41 -24 48 -24 7 0 15 -7 18 -15 4 -8 25
-26 49 -41 51 -32 238 -216 238 -235 0 -7 7 -21 17 -31 18 -20 37 -50 53 -88
7 -14 19 -38 27 -55 32 -61 41 -81 53 -115 63 -177 55 -551 -14 -704 -13 -28
-29 -70 -36 -94 -7 -23 -19 -47 -27 -53 -7 -6 -13 -15 -13 -20 0 -19 -119
-172 -168 -214 -12 -11 -46 -42 -75 -68 -29 -27 -83 -67 -122 -89 -38 -23 -77
-47 -85 -54 -17 -14 -162 -78 -225 -99 -127 -42 -159 -44 -572 -46 -221 -1
-407 -5 -413 -9 -12 -8 -13 -30 -8 -310 l3 -195 240 -2 c132 -2 380 1 550 6
279 8 316 11 370 30 67 24 383 181 426 211 15 11 30 20 35 20 4 0 25 15 48 33
23 18 59 44 81 59 45 30 212 179 235 211 8 11 27 32 43 46 15 14 27 31 27 37
0 6 7 18 16 25 25 21 80 111 135 222 28 56 55 110 60 120 18 34 62 182 65 217
1 14 7 52 13 85 22 120 7 572 -20 599 -5 6 -9 28 -9 49 0 36 -34 161 -62 227
-16 38 -35 80 -62 142 -15 31 -26 61 -26 65 0 5 -13 22 -29 39 -15 16 -38 50
-49 75 -12 26 -35 58 -52 72 -16 14 -30 28 -30 32 0 8 -151 155 -207 201 -148
123 -410 256 -593 303 -86 22 -211 29 -635 37 -165 3 -410 9 -545 14 -408 15
-1018 21 -1024 11z"/>
<path d="M5580 5290 c-74 -27 -84 -31 -105 -40 -54 -21 -180 -34 -375 -36
l-215 -3 -25 -30 c-14 -16 -38 -48 -55 -71 -28 -38 -202 -220 -211 -220 -2 0
-12 -7 -21 -16 -80 -72 -117 -100 -175 -134 -36 -22 -71 -40 -77 -40 -11 0
-31 -32 -31 -49 0 -12 86 -28 165 -30 33 -1 130 -5 215 -9 85 -4 193 -6 240
-6 157 3 434 25 500 39 36 8 92 17 124 21 73 8 110 27 114 56 7 51 -2 500 -11
560 -4 26 -8 26 -57 8z"/>
<path d="M3367 2628 c-14 -11 -16 -38 -18 -183 -2 -164 -1 -170 19 -181 14 -7
105 -9 272 -7 228 4 260 2 343 -17 109 -24 182 -63 251 -134 61 -62 96 -146
96 -227 -1 -75 -17 -191 -27 -198 -5 -3 -15 -22 -23 -41 -21 -52 -112 -135
-198 -179 -75 -38 -242 -65 -257 -40 -4 6 -8 140 -9 299 -1 159 -4 291 -8 295
-7 8 -436 7 -449 -1 -5 -3 -8 -212 -6 -475 2 -404 4 -471 17 -480 14 -10 674
-4 690 6 4 2 42 11 85 20 44 9 96 25 117 36 20 10 43 19 49 19 7 0 54 25 105
56 183 111 312 284 354 479 22 101 4 335 -37 459 -17 52 -45 107 -73 141 -9
11 -22 33 -30 49 -24 47 -145 150 -223 189 -99 49 -165 72 -277 91 -52 10
-114 22 -137 27 -67 14 -606 12 -626 -3z"/>
<path d="M2326 2623 c-131 -2 -234 -8 -241 -13 -9 -7 -11 -58 -8 -183 2 -94 5
-177 7 -183 3 -8 87 -9 283 -6 253 4 282 2 327 -14 67 -26 93 -61 80 -111 -8
-32 -17 -42 -57 -61 -66 -32 -159 -41 -402 -42 -115 0 -216 -4 -223 -8 -14 -9
-23 -324 -10 -345 5 -9 69 -11 243 -8 362 5 441 -14 452 -110 5 -44 3 -48 -30
-73 -57 -44 -120 -53 -395 -60 -139 -3 -258 -8 -263 -11 -5 -4 -9 -86 -9 -185
0 -218 -9 -206 154 -196 61 4 172 9 246 11 74 3 173 7 220 11 47 4 101 8 120
9 71 5 167 33 243 70 90 44 151 108 205 213 30 59 32 69 32 168 0 59 -5 124
-12 145 -16 56 -95 149 -146 174 -23 11 -42 25 -42 31 0 6 20 22 43 34 53 28
79 64 106 149 29 88 28 185 -3 282 -13 42 -29 85 -37 94 -72 92 -195 166 -307
186 -31 5 -70 14 -87 19 -41 12 -218 16 -489 13z"/>
<path d="M864 2602 c-31 -2 -43 -8 -47 -21 -2 -10 -2 -91 1 -180 l5 -161 243
0 c255 0 355 -12 419 -48 26 -15 30 -25 33 -65 2 -25 -2 -56 -8 -68 -26 -48
-149 -69 -465 -78 l-220 -6 0 -485 0 -485 213 -3 c125 -1 220 2 231 7 17 10
18 28 16 301 -1 218 1 293 10 300 7 6 50 15 96 21 197 25 362 61 422 93 68 36
177 144 177 175 0 12 7 33 16 47 24 36 29 205 11 311 -14 73 -20 88 -66 145
-38 47 -71 75 -124 105 -152 86 -278 106 -655 101 -147 -2 -286 -4 -308 -6z"/>
<path d="M8934 2538 c-4 -7 -9 -64 -11 -127 -4 -136 -7 -142 -99 -165 -94 -24
-184 -3 -200 46 -4 13 -10 73 -13 133 l-6 110 -59 3 c-32 2 -64 -2 -69 -7 -13
-13 -11 -201 3 -252 20 -73 102 -138 203 -163 l28 -7 -4 -107 c-3 -59 0 -115
5 -124 7 -14 22 -18 68 -18 34 0 62 5 66 12 4 6 6 62 5 125 l-2 113 33 14 c18
8 50 22 70 30 37 16 85 70 104 116 16 36 18 248 3 266 -14 18 -115 19 -125 2z"/>
<path d="M6920 2534 c-84 -17 -138 -49 -185 -110 -44 -57 -54 -127 -54 -368
l0 -217 27 -10 c31 -12 87 -6 108 12 11 9 14 39 13 131 -1 65 1 121 4 124 3 3
16 0 28 -7 31 -16 196 -6 273 16 72 21 141 80 156 134 34 122 -9 204 -140 271
-44 22 -169 35 -230 24z m164 -129 c36 -17 66 -61 66 -97 0 -37 -35 -85 -72
-97 -18 -6 -71 -12 -118 -14 -47 -2 -96 -9 -108 -16 -22 -12 -22 -11 -21 56 0
94 25 154 70 170 48 17 145 16 183 -2z"/>
<path d="M7529 2530 c-72 -21 -154 -103 -164 -162 -8 -45 -10 -516 -3 -524 12
-12 75 -15 101 -5 l27 11 0 130 c0 120 7 150 26 119 12 -19 230 -4 293 20 83
31 119 60 136 110 62 182 -64 312 -298 310 -51 0 -104 -4 -118 -9z m212 -117
c48 -21 74 -69 64 -119 -12 -67 -71 -94 -202 -94 -47 0 -84 -5 -91 -12 -22
-22 -26 3 -14 94 7 57 17 97 27 107 40 41 151 53 216 24z"/>
<path d="M8041 2527 c-14 -17 -5 -473 11 -534 26 -104 154 -162 325 -148 73 6
86 10 94 29 7 14 7 30 0 48 -9 25 -13 26 -98 30 -96 4 -135 18 -167 61 -18 25
-20 45 -24 265 -3 138 -8 242 -14 250 -14 17 -112 16 -127 -1z"/>
<path d="M6442 2507 c-8 -9 -11 -93 -12 -247 0 -206 -2 -236 -18 -264 -28 -48
-75 -70 -149 -69 -78 1 -127 32 -143 91 -5 21 -12 137 -16 258 -3 120 -9 223
-13 227 -5 4 -35 7 -67 5 l-59 -3 -3 -190 c-2 -104 0 -228 3 -274 6 -77 10
-86 42 -122 33 -37 52 -50 113 -80 16 -8 72 -13 155 -13 141 -1 170 8 244 70
64 54 66 63 67 342 1 207 -2 256 -13 268 -19 18 -116 19 -131 1z"/>
<path d="M5426 2495 c-32 -7 -70 -21 -84 -32 -42 -32 -67 -90 -65 -153 2 -49
6 -58 35 -83 32 -28 189 -108 238 -122 63 -18 146 -64 159 -89 19 -35 2 -73
-36 -81 -15 -3 -42 -10 -59 -15 -17 -6 -98 -10 -180 -10 -103 0 -154 -4 -162
-12 -16 -16 -15 -63 1 -76 17 -15 408 -15 462 -1 24 7 57 28 83 55 l44 44 -3
79 c-4 68 -8 83 -29 105 -34 37 -98 71 -230 123 -182 71 -202 89 -161 142 19
24 23 25 200 30 99 4 184 10 190 16 5 6 6 28 2 50 l-6 40 -170 2 c-108 1 -191
-4 -229 -12z"/>
<path d="M8693 1572 c-6 -4 -12 -52 -14 -117 l-4 -110 29 -3 c16 -2 32 2 36 8
6 9 13 9 30 0 31 -17 48 -6 52 31 3 30 7 34 53 47 28 8 57 17 65 22 22 10 25
78 5 100 -25 28 -87 35 -127 14 -45 -23 -48 -29 -48 -104 0 -36 -5 -72 -10
-80 -18 -27 -30 10 -30 96 0 81 -12 112 -37 96z"/>
<path d="M8283 1561 c-49 -9 -76 -37 -68 -69 9 -38 19 -47 66 -61 29 -9 39
-17 37 -29 -3 -14 -14 -17 -57 -15 -29 0 -58 6 -64 12 -6 6 -12 35 -15 65 -6
72 -28 96 -88 96 -24 0 -55 -7 -68 -15 -25 -17 -41 -68 -38 -120 4 -50 -7 -57
-68 -45 -53 10 -79 24 -68 35 3 3 29 9 57 14 28 4 54 11 57 14 12 12 -8 25
-47 32 -47 8 -47 24 2 40 52 18 44 40 -13 38 -97 -3 -152 -68 -126 -149 19
-57 63 -75 176 -72 l87 3 5 40 c4 31 10 41 27 43 25 4 53 -31 53 -65 0 -26 -4
-25 115 -25 100 0 144 13 152 42 7 27 22 25 33 -4 19 -52 60 -39 60 19 0 34
13 45 55 45 28 0 42 -16 47 -55 2 -24 8 -30 28 -30 l25 0 -4 105 c-2 58 -5
108 -8 113 -2 4 -13 7 -24 7 -15 0 -19 -7 -19 -34 0 -40 -8 -48 -56 -49 -38
-1 -54 14 -54 49 0 23 -16 34 -37 27 -9 -3 -13 -27 -13 -72 0 -37 -3 -71 -6
-74 -4 -4 -23 6 -43 21 -20 15 -49 33 -64 40 -35 15 -30 37 9 38 53 1 62 4 68
21 12 30 -31 40 -111 24z"/>
<path d="M7340 1551 c-9 -7 -37 -8 -71 -5 -78 9 -124 -8 -138 -49 l-12 -31
-18 30 c-33 54 -110 69 -167 33 -31 -19 -35 -19 -63 -5 -56 30 -165 15 -175
-23 -2 -9 -7 -50 -11 -92 -5 -59 -3 -78 8 -87 23 -20 47 -4 47 32 0 31 1 32
66 44 36 7 70 10 75 6 5 -3 8 -21 7 -41 -6 -73 63 -71 72 3 5 37 7 39 43 42
36 3 37 2 37 -31 0 -51 24 -68 85 -59 49 7 50 8 55 47 4 34 9 40 31 43 34 4
59 -21 59 -59 0 -27 3 -30 28 -27 27 3 27 4 27 78 1 102 1 102 33 98 27 -3 27
-4 32 -88 l5 -85 30 0 30 0 3 86 c2 76 5 88 22 92 37 10 49 -13 52 -98 3 -78
4 -80 28 -80 22 0 25 5 28 43 2 23 6 42 9 42 3 0 28 -20 54 -45 53 -49 57 -51
83 -32 14 10 17 29 17 111 0 54 -4 103 -10 109 -20 20 -40 -1 -43 -49 -2 -26
-8 -49 -14 -51 -7 -2 -25 16 -40 41 -16 25 -36 48 -44 51 -29 12 -245 17 -260
6z"/>
<path d="M5823 1533 c-20 -4 -23 -11 -23 -46 0 -51 -15 -80 -30 -57 -5 8 -12
32 -15 52 -12 71 -82 61 -107 -14 -8 -24 -20 -43 -27 -43 -7 0 -23 20 -34 45
-18 36 -28 46 -51 48 -35 4 -65 -28 -66 -70 0 -16 -4 -28 -9 -28 -4 0 -8 17
-8 39 0 50 -8 61 -44 61 l-29 0 0 -80 c0 -90 -11 -105 -59 -79 -22 12 -26 23
-29 64 -4 81 -10 97 -35 93 -20 -3 -21 -9 -22 -83 0 -44 3 -88 8 -97 16 -36
62 -49 164 -46 103 3 106 5 118 61 7 35 24 31 44 -11 16 -33 50 -50 71 -37 7
4 18 23 26 41 21 51 54 41 54 -17 0 -22 30 -32 86 -27 l39 3 3 88 3 87 35 0
c19 0 37 -6 39 -12 3 -7 6 -47 7 -88 l3 -75 30 0 30 0 0 83 c0 69 3 85 18 93
39 22 51 8 52 -60 0 -62 1 -65 33 -84 42 -25 152 -36 152 -15 0 19 -20 38 -41
38 -10 0 -30 5 -45 10 -36 14 -19 32 38 39 59 8 59 34 1 42 -24 3 -45 8 -49
11 -10 11 6 28 26 28 10 0 31 5 45 10 23 9 25 13 15 25 -17 21 -60 19 -117 -6
l-48 -20 -14 20 c-12 19 -23 21 -115 20 -55 -1 -111 -4 -123 -6z"/>
<path d="M6282 1527 c-7 -7 -7 -18 -2 -27 5 -7 6 -53 3 -102 l-6 -88 69 0 c76
0 120 19 150 65 18 28 13 105 -9 123 -42 35 -184 55 -205 29z"/>
</g>
</svg>
